<svg width="18" height="14" viewBox="0 0 18 14" fill="none" xmlns="http://www.w3.org/2000/svg">
<path d="M5.89286 6.64287C7.66741 6.64287 9.10714 5.20313 9.10714 3.42858C9.10714 1.65403 7.66741 0.214294 5.89286 0.214294C4.1183 0.214294 2.67857 1.65403 2.67857 3.42858C2.67857 5.20313 4.1183 6.64287 5.89286 6.64287ZM13.9286 7.71429V4.76787C13.9286 4.62557 13.803 4.50001 13.6607 4.50001H12.0536C11.9113 4.50001 11.7857 4.62557 11.7857 4.76787V7.71429H8.83929C8.69699 7.71429 8.57143 7.83985 8.57143 7.98215V9.58929C8.57143 9.73159 8.69699 9.85715 8.83929 9.85715H11.7857V12.8036C11.7857 12.9459 11.9113 13.0714 12.0536 13.0714H13.6607C13.803 13.0714 13.9286 12.9459 13.9286 12.8036V9.85715H16.875C17.0173 9.85715 17.1429 9.73159 17.1429 9.58929V7.98215C17.1429 7.83985 17.0173 7.71429 16.875 7.71429H13.9286ZM7.76786 9.58929V7.98215C7.76786 7.39621 8.25335 6.91072 8.83929 6.91072H10.7059C10.2288 6.37501 9.601 6.10715 8.88951 6.10715C8.75558 6.10715 8.6635 6.16575 8.56306 6.24945C7.74275 6.87724 6.94755 7.27066 5.89286 7.27066C4.83817 7.27066 4.04297 6.87724 3.22266 6.24945C3.12221 6.16575 3.03013 6.10715 2.89621 6.10715C0.443638 6.10715 0 9.01173 0 10.9035C0 12.2679 0.895647 13.0714 2.23493 13.0714H9.55078C10.053 13.0714 10.572 12.9543 10.9821 12.6529V10.6607H8.83929C8.25335 10.6607 7.76786 10.1752 7.76786 9.58929Z" fill="#34AAFF"/>
</svg>
